<?xml version="1.0" encoding="UTF-8"?><svg id="Layer_2" xmlns="http://www.w3.org/2000/svg" viewBox="0 0 725.5 200.29"><defs><style>.cls-1{fill:#fff;}.cls-1,.cls-2{stroke-width:0px;}.cls-2{fill:#fbfbfe;}</style></defs><g id="Livello_1"><path class="cls-1" d="m725.5,84.98c.03.73-.72,1.39-.69,1.98.21,5.36.52,5.35-6.18,5.35-25.76,0-51.52-.07-77.29.08-3.45.02-4.34-.98-4.3-4.32.17-13.8.07-27.6.07-41.41h-.77c0-13.81.08-27.61-.06-41.41-.02-2.79.59-3.76,3.55-3.49,2.3.21,4.61,2.72,6.92,2.87,3.58.21,7.17-2.01,10.75-2,3.27.01,4.05,1.22,4.14,4.31.62,22.42,1.5,44.83,2.11,67.26.09,3.29,1,4.37,4.36,4.45,17.41.41,34.8,1.19,52.21,1.58,3.61.06,5.02.93,5.18,4.75Z"/><path class="cls-1" d="m630.74,194.02c.04,2.25-.73,2.96-2.93,3.08-6.46.37-12.94.76-19.35,1.54-3.61.44-4.4-1.02-4.45-4.18-.18-11.36-.64-22.72-.73-34.08-.02-3.45-.86-4.68-4.59-4.52-9.91.44-19.85.49-29.78.46-3.04-.02-3.92.94-3.88,3.93.16,11.51-.05,23.02.14,34.52.05,3.25-.87,4.19-4.11,4.08-2.86-.1-5.74-2.5-8.61-2.51-4.04-.03-8.08,2.37-12.12,2.51-3.35.12-4.43-.78-4.39-4.27.2-13.8.09-27.61.09-41.42s.06-27.91-.06-41.86c-.02-2.76.78-3.77,3.59-3.83,3.11-.07,6.23.62,9.34.49,4.36-.17,8.73-1.18,13.08-1.46,2.63-.17,3.15.85,3.13,3.19-.09,9.92.1,19.85-.11,29.77-.07,3.26.83,4.15,4.1,3.98,10.06-.51,20.13-.77,30.2-.91,2.96-.05,3.55-1.24,3.44-3.91-.39-9.49-.47-18.98-.91-28.46-.14-3.11.93-3.9,3.89-3.81,2.8.09,5.61.91,8.42.92,3.82.01,7.64-.82,11.45-.91,2.65-.05,3.84.52,3.88,3.52.16,14.12-2.76,28.24-2.55,42.37.23,13.93,3.59,27.85,3.82,41.77Z"/><path class="cls-1" d="m626.13,84.37c.05.55-.68,1.06-.63,1.54.59,6.44,1.02,6.58-6.44,6.67-12.52.15-25.04.04-37.56.04-.01.26-.01.52-.01.78-13.96,0-27.92-.08-41.88.06-2.83.02-3.65-.77-3.64-3.6.05-14.31.08-28.62.08-42.93,0-1.7,1-3.39,1-5.09-.01-11.32-1.03-22.64-1.07-33.96-.02-2.98.91-4.04,3.86-4.08,3.17-.05,6.34,1.45,9.5,1.34,3.45-.11,6.9-1.83,10.34-2.04,2.85-.17,3.29,1.06,3.37,3.51.8,23.13,1.83,46.26,2.51,69.39.11,3.61,1.33,4.16,4.5,4.13,16.99-.13,33.97.04,50.95-.14,3.41-.02,4.78.83,5.12,4.38Z"/><path class="cls-1" d="m527.3,194.88c.16,3.13-.87,3.87-3.84,3.85-14.54-.13-29.1-.06-43.64-.06v-.07c-14.4,0-28.81-.07-43.2.06-3.01.03-3.9-.67-3.65-3.82.69-9.05.54-9.06,9.36-8.99,15.84.12,31.68.2,47.52.46,2.97.05,3.99-.75,3.9-3.83-.22-7.19-.27-14.4.01-21.58.13-3.43-1.15-3.98-4.21-3.96-17.42.14-34.85-.03-52.27.15-3.64.04-4.98-.66-4.9-4.67.1-5.68,2.5-11.35,2.51-17.03.02-8.56-2.38-17.14-2.47-25.71-.02-2.96.73-3.94,3.83-3.9,27.65.37,55.3.65,82.95.78,3.45.02,4.31.93,4.07,4.38-.07,1-.91,1.88-.98,2.66-.49,6.04-.46,6.06-8.31,6.08-16.14.05-32.27.19-48.39.08-3.19-.02-4.27.76-4.13,4.04.21,4.73.03,9.5-.28,14.23-.18,2.77.55,3.68,3.49,3.7,18.43.09,36.86.54,55.3.47,4.25-.02,5.25,1.28,5.37,5.23.23,7.67-2.62,15.34-2.3,23.01.35,8.16,3.86,16.3,4.26,24.44Z"/><path class="cls-1" d="m523.25,88.39c.05,3.52-1.08,4.35-4.38,4.22-3.33-.12-6.68-2.54-10.03-2.54-2.84,0-5.69,2.41-8.53,2.55-3.74.2-4.54-1.16-4.45-4.62.2-8.63-.08-17.26.03-25.89.03-2.72-.69-3.76-3.6-3.79-9.92-.09-19.85-.36-29.77-.78-2.86-.12-3.72.72-3.68,3.56.12,9.06-.12,18.12-.01,27.18.03,2.65-.8,3.45-3.42,3.47-6.04.06-12.08.38-18.12.72-2.26.12-3.39-.32-3.38-2.98.08-28.47.07-56.95.01-85.43-.01-2.39.96-2.87,3.09-2.83,13.44.28,26.88,2.12,40.32,2.38,14.04.27,28.09-1.05,42.13-.84,3.13.05,3.76,1.2,3.74,4.06-.13,13.66-.06,27.32-.06,40.99.01,13.52-.11,27.04.11,40.57Zm-30.37-41.83c1.93.04,2.92-.43,2.89-2.59-.1-8.17-.12-16.36-.1-24.54,0-1.69-.73-2.19-2.33-2.2-10.48-.11-20.98-.23-31.45-.47-2.38-.05-2.87.98-2.86,3.09.06,7.46.11,14.93-.11,22.39-.09,3.02,1.19,3.62,3.81,3.55,4.88-.12,9.77-.03,14.65-.03v.77c5.16,0,10.33-.07,15.5.03Z"/><path class="cls-1" d="m423.5,188.27c.09,10.5.2,10.57-10.46,10.64-12.08.09-24.18.02-36.26.02v1.27c-14.1,0-28.2-.11-42.3.09-3.29.04-4.12-.91-4.1-4.11.08-10.19-.05-10.2,10.06-10.34,7.2-.09,14.39-.24,21.59-.2,2.37.02,3.25-.62,3.24-3.14-.04-19.56.01-39.12.16-58.68.02-2.61-.99-3.1-3.31-2.99-8.77.41-17.55.56-26.31,1.05-2.88.16-3.83-.74-3.61-3.56.1-1.34,1.73-2.69,1.73-4.04s-1.62-2.77-1.74-4.15c-.29-3.21,1.12-3.76,4-3.68,27.76.62,55.53,1.19,83.3,1.58,3.37.05,4.04,1.23,4.01,4.29-.09,8.5.04,8.53-8.44,8.88-6.47.26-12.94.53-19.42.57-2.66.02-3.79.62-3.72,3.59.23,9.7-1.15,19.41-.98,29.1.15,9.42,1.84,18.84,1.94,28.26.03,2.82,1.13,3.29,3.63,3.14,7.75-.46,15.53-.62,23.28-1.1,2.82-.17,3.68.63,3.71,3.51Z"/><path class="cls-1" d="m420.01,2.9c2.63-.07,3.47.82,3.43,3.47-.18,13.4-1.9,26.8-2.05,40.2-.15,13.93,1.28,27.85,1.17,41.78-.02,2.45-.82,3.23-3.26,3.15-3.44-.1-6.89-.94-10.34-.96-2.6-.01-5.2.8-7.8.84-2.5.05-3.05-.91-3.19-3.23-1.02-16.21-2.19-32.41-3.38-49.61-5.24,4.36-9.95,7.88-14.16,11.94-2.35,2.26-3.94,1.87-6.21.3-5.85-4.07-11.8-8-18.44-12.48v4.9c0,15.25-.07,30.49.05,45.74.02,2.78-.7,3.76-3.58,3.64-2.8-.1-5.61-1.71-8.42-1.7-2.8.01-5.61,1.62-8.42,1.69-2.42.06-3.22-.69-3.22-3.16.07-27.76.07-55.53.01-83.29-.01-2.43.74-3.26,3.2-3.22,3.86.07,7.74,1.66,11.61,1.66,3.47,0,6.94-1.59,10.41-1.66,2.34-.04,3.65.84,4.75,2.86,4.14,7.56,8.5,15,12.62,22.58,1.36,2.51,2.16,2.31,3.8.23,6.03-7.69,12.28-15.22,18.31-22.91,1.57-2.01,3.25-2.87,5.82-2.79,2.59.09,5.19,1.69,7.79,1.69,3.18.03,6.34-1.57,9.5-1.66Z"/><path class="cls-1" d="m323.12,89.28c.19,3.26-.67,4.16-3.96,4.12-14.25-.18-28.49-.08-42.75-.08v1.1c-14.25,0-28.5-.09-42.75.08-3.08.04-3.88-.89-3.86-3.86.02-7.48-.12-7.46,7.52-7.59,17.13-.29,34.26-.64,51.38-.82,2.69-.03,3.83-.52,3.6-3.53-.55-7.46-.89-14.93-1.08-22.41-.08-2.88-1.27-3.51-3.96-3.51-18.28.11-36.57-.01-54.85.12-3.09.02-4.23-.57-4.18-3.97.12-7.52,2.5-15.04,2.48-22.56-.01-6.43-2.39-12.87-2.46-19.3-.03-2.91.67-3.94,3.75-4,28.84-.52,56.85-1.16,84.2-1.86,2.6-.06,3.08,1.03,3.36,3.19.08.59-1.41,1.15-1.35,1.66.85,6.78,1.93,6.77-5.69,6.78-16.56.02-33.12.12-49.67.01-3.09-.02-4.36.63-4.25,4,.21,6.18.12,12.37-.18,18.55-.15,3.11.96,3.79,3.88,3.79,17.99.06,35.99.41,53.98.41,3.47,0,4.61.81,4.74,4.43.48,15.09,1.23,30.17,2.1,45.25Z"/><path class="cls-1" d="m320.93,109.45c.03.81-1.5,1.55-1.48,2.24.26,8.1,1.17,8.38-8.32,8.81-15.53.69-31.07,1.01-46.61,1.25-3.36.05-4.47.96-4.37,4.38.17,6.03.01,12.08-.34,18.11-.17,2.94.82,3.61,3.58,3.59,17.42-.1,34.83.05,52.25-.13,3.4-.04,4.36.99,4.56,4.27.09,1.49-1.39,2.76-1.35,3.85.24,6.41.61,6.4-8.28,6.4-15.11,0-30.24.16-45.34-.11-4-.07-4.7,1.25-4.65,4.85.13,9.49-.25,18.98-.22,28.47.01,2.64-.8,3.46-3.44,3.41-4.47-.07-8.93-1.68-13.4-1.67-3.88,0-7.77,1.6-11.65,1.69-2.88.06-3.62-.89-3.6-3.68.13-13.8.06-27.6.06-41.4h2.37c0-14.08.04-28.17-.03-42.25-.02-2.62.98-3.41,3.56-3.45,27.77-.47,55.54-1.02,83.31-1.62,2.3-.06,3.3.38,3.39,2.99Z"/><path class="cls-2" d="m163.47,62.55c.17-6.03,5.73-11.52,11.61-11.48,8.03.07,11.72,3.37,11.48,10.9-.21,6.52-4.25,11.69-14.04,11.4-4.57-.14-9.21-5.59-9.05-10.82Z"/><path class="cls-2" d="m175.37,102.45c.15,3.19-2.2,5.61-5.5,5.66-3.86.05-6.12-1.88-6.14-5.26-.02-2.76,3.15-6.32,5.64-6.33,1.7-.02,5.92,4.15,6,5.93Z"/><path class="cls-2" d="m88.86,112.21c4.7.1,9.02-3.68,8-8.86,0-6.09-3.26-8.99-10.2-9.06-4.07-.04-7.04,4.3-7.05,10.28.01,4.1,4.16,7.53,9.25,7.64Zm-4.95-22.93c5.38-1.4,10.2-.94,15.15,2.19,3.46,2.19,3.84,5.21,4.18,8.35.53,4.99,1.9,10.26-2.96,14.3-2.87,2.38-6.14,2.68-9.48,2.84-.77.04-1.54.06-2.31.11-2.92.27-5.4.03-7.48-.68-.38-.12-.75-.27-1.1-.42-.53-.24-1.04-.52-1.51-.84-.63-.41-1.21-.89-1.74-1.42-.2-.2-.38-.4-.56-.61-.14-.16-.27-.32-.4-.49-1.46-1.9-2.46-4.37-3.05-7.37-1.29-6.4,4.52-14.22,11.26-15.96Z"/><path class="cls-2" d="m75.69,112.61c.12.17.26.34.4.49-.14-.15-.27-.32-.4-.49Z"/><path class="cls-2" d="m134.41,21.88c.29,1.7,1.13,3.55,3.04,4.43,7.09,3.28,18.42,1.26,24.21-4.32,1.85-1.78,3.24-3.81,1.99-6.42s-2.74-5.05-6.41-4.59c-2.12.27-4.29.05-6.45.05-2.29,0-4.58-.03-6.88.01-4.6.08-10.26,6.34-9.5,10.84ZM62.07,103.58c0,1.01.12,2.03-.02,3.01-1.48,10.53,5.68,18.15,16.17,20.02,10.45,1.87,20.02.22,29.62-4.38,6.35-3.04,7.65-7.93,8.02-13.79.14-2.27-.22-4.59-.45-6.88-1.25-12.44-10.43-24.11-24.62-23.58-3.02.11-6.05.12-9.06-.02-5.82-.27-10,2.76-13.9,6.55-5.45,5.31-6.43,11.93-5.76,19.07Zm-10.84,50.31c-2.62.4-3.26-.61-2.82-3.09.69-3.81,1.21-7.66,1.65-11.51.35-3.08-.66-6.24-3.73-6.72-4.86-.76-8.23,3.23-8.35,8.27-.1,4.14.3,8.13-1.25,12.44-1.89,5.26.01,10.29,7.13,9.79,2.53-.18,5.01.24,7.57-.93,2.68-1.23,4.94-.31,5.5,3.16.36,2.26,1.12,4.46,1.69,6.68q1.79,6.89,8.95,6.73c2.58-.25,5.44.16,7.66-.87,8.1-3.73,16.31-7.12,24.68-10.17,3.42-1.25,1.45-4.5,1.85-6.84.19-1.08.23-2.65-1.4-2.62-3.38.05-6.99-1.32-10.07.96-5.25,3.86-11.44,5.12-17.47,6.97-4.01,1.23-5.46.37-4.43-3.63.84-3.29-1.48-5.29-2.44-7.9-1.82-4.96-5.02-.84-7.46-1.37-2.28-.5-4.85.28-7.26.65ZM22.4,11.47c-1.16.08-3.29-.62-3.32.93-.05,3.97-2.32,7.43-2.42,11.23-.25,9.77-.06,19.57-.16,29.35-.02,2.22.8,2.73,2.82,2.3,3.66-.78,7.4-1.23,11.01-2.19,10.55-2.79,20.19,1.44,30.38,3.74-13.63,4.07-22.83,13.82-32.22,23.35-2.55,2.6-4.84,5.29-6.23,8.67-.43.54-1.65.97-.74,1.77.55.5,1.14-.41,1.56-.94,1.33-1.09,2.79-2.06,3.97-3.3,11.88-12.58,26.92-19.86,42.94-25.48,1.35-.48,2.74-1.01,4.15-1.14,25.82-2.37,51.17-1.32,75.25,9.85,4.52,2.09,7.71,5.72,9.31,9.69,1.63,4.03,2.22,8.84-1.5,13.29-6.53,7.83-12.33,16.28-18.39,24.5-.8,1.08-2.13,1.95-1.88,3.74,10.34-1.12,20.65-2.09,30.91-3.42,3.33-.43,4.19.06,3.76,3.63-2.57,21.45-11.41,40.17-24.47,57.08-.94,1.22-2.38,2.05-3.58,3.07-4.05,3.41-9.06,5.14-14.05,7.38,6.19,2.52,11.41-1.17,17.02-1.03,11.23.29,22.47.09,33.7.09,14.05,0,14.22-.01,13.27-14.22-1.87-27.9-.18-55.85-1.56-83.78-1.15-22.97-.01-46.04.11-69.07q.05-9.54-9.68-9.54c-6.99,0-6.55.02-6.85,6.84-.52,11.93-4.97,18.18-15.75,19.57-9.59,1.23-19.13,1.35-28.66-1.42-8.39-2.44-12.83-13.47-7.91-20.75.77-1.13,2.68-2.16,1.92-3.54-.83-1.5-2.88-.67-4.37-.67-21.32-.02-42.65.44-63.95-.09-11.5-.27-22.94-.21-34.39.51ZM2.77,193.04c3.23-2.42,5.58-4.93,2.06-9.03-.67-.79-.41-2.49-.38-3.76.45-25.32-.4-50.74,1.72-75.91,2.47-29.37-.59-58.64.83-87.94.21-4.29,1.57-8.74-1.17-12.87-1.07-1.61.25-1.99,1.54-1.9,16.1,1.19,32.09-3.42,48.23-.82,2.82.45,5.75.3,8.63.31,43.48.02,86.97.01,130.45.01,5.83,0,7.16,1.24,7.25,6.95,1.01,59.56,1.16,119.12.98,178.67-.03,11.05-.16,10.95-11.11,11.65-11.54.73-23.05-.2-34.51-.9-5.37-.33-10.32,1.25-15.52,1.24-43.91-.02-87.83-.01-131.75-.02-3.54,0-7.32.77-10.02-3.55.73-.55,1.74-1.35,2.77-2.13Z"/></g></svg>